<svg xmlns="http://www.w3.org/2000/svg" viewBox="0 0 640 480">
  <defs>
    <clipPath id="globe-clip">
      <circle cx="320" cy="240" r="200"/>
    </clipPath>
  </defs>
  
  <!-- Background circle -->
  <circle cx="320" cy="240" r="200" fill="#4A90E2" stroke="#2E5C8A" stroke-width="4"/>
  
  <!-- Continents -->
  <g clip-path="url(#globe-clip)">
    <!-- North America -->
    <path d="M180 120 Q200 100 240 110 Q280 120 300 140 Q320 160 310 200 Q300 240 280 260 L240 240 Q200 220 180 180 Z" fill="#2D5A27"/>
    
    <!-- Europe -->
    <path d="M300 100 Q340 90 380 110 Q420 130 440 160 Q460 190 450 220 L420 200 Q380 180 340 170 Q320 150 300 140 Z" fill="#2D5A27"/>
    
    <!-- Asia -->
    <path d="M440 110 Q480 100 520 120 Q560 140 580 180 Q600 220 590 260 Q580 300 560 320 L520 300 Q480 280 460 240 Q450 200 440 160 Z" fill="#2D5A27"/>
    
    <!-- Africa -->
    <path d="M320 180 Q360 170 400 190 Q440 210 460 250 Q480 290 470 330 Q460 370 440 400 L400 380 Q360 360 340 320 Q320 280 320 240 Z" fill="#2D5A27"/>
    
    <!-- South America -->
    <path d="M240 280 Q280 270 320 290 Q360 310 380 350 Q400 390 390 430 Q380 470 360 480 L320 460 Q280 440 260 400 Q240 360 240 320 Z" fill="#2D5A27"/>
    
    <!-- Australia -->
    <path d="M480 320 Q520 310 560 330 Q600 350 620 380 Q640 410 630 440 L600 430 Q560 420 540 400 Q520 380 500 360 Q480 340 480 330 Z" fill="#2D5A27"/>
  </g>
  
  <!-- Grid lines -->
  <g stroke="#ffffff" stroke-width="1" opacity="0.3" fill="none">
    <!-- Meridians -->
    <ellipse cx="320" cy="240" rx="200" ry="200"/>
    <ellipse cx="320" cy="240" rx="160" ry="200"/>
    <ellipse cx="320" cy="240" rx="120" ry="200"/>
    <ellipse cx="320" cy="240" rx="80" ry="200"/>
    <ellipse cx="320" cy="240" rx="40" ry="200"/>
    
    <!-- Parallels -->
    <ellipse cx="320" cy="240" rx="200" ry="160"/>
    <ellipse cx="320" cy="240" rx="200" ry="120"/>
    <ellipse cx="320" cy="240" rx="200" ry="80"/>
    <ellipse cx="320" cy="240" rx="200" ry="40"/>
  </g>
</svg> 