<svg width="44" height="24" viewBox="0 0 44 24" fill="none" xmlns="http://www.w3.org/2000/svg">
<path fill-rule="evenodd" clip-rule="evenodd" d="M0.69519 9.0087H2.64606C4.80139 9.0087 6.30368 10.4996 6.30368 12.6397C6.30368 13.707 5.84405 14.7389 5.06685 15.4236C4.41277 16.0016 3.66768 16.2607 2.63576 16.2607H0.69519L0.69519 9.0087ZM2.37983 15.033C3.23856 15.033 3.781 14.8579 4.19858 14.4566C4.6582 14.0211 4.93471 13.3255 4.93471 12.6293C4.93471 11.9345 4.6582 11.2596 4.19858 10.8239C3.75965 10.401 3.23856 10.2374 2.37983 10.2374H2.02315L2.02315 15.033H2.37983Z" fill="#201D1C"/>
<path d="M6.91528 16.2607H8.2443V9.0087H6.91528L6.91528 16.2607Z" fill="#201D1C"/>
<path d="M11.4939 11.7917C10.6964 11.4775 10.4622 11.2704 10.4622 10.8785C10.4622 10.4218 10.8794 10.0747 11.4522 10.0747C11.8505 10.0747 12.1777 10.2488 12.524 10.6621L13.2193 9.69286C12.6479 9.16085 11.9642 8.88884 11.2172 8.88884C10.0117 8.88884 9.09218 9.77992 9.09218 10.9668C9.09218 11.966 9.52035 12.4775 10.7685 12.9556C11.2888 13.1509 11.5536 13.2811 11.6872 13.3686C11.9528 13.5532 12.0857 13.8144 12.0857 14.119C12.0857 14.7066 11.6468 15.142 11.0538 15.142C10.4199 15.142 9.90935 14.8045 9.60338 14.1747L8.74475 15.0546C9.35708 16.0113 10.0925 16.4353 11.1037 16.4353C12.4848 16.4353 13.4536 15.4579 13.4536 14.054C13.4536 12.9018 13.0057 12.3802 11.4939 11.7917Z" fill="#201D1C"/>
<path d="M13.8729 12.6398C13.8729 14.7714 15.4455 16.4243 17.4693 16.4243C18.0414 16.4243 18.5313 16.3046 19.1355 16.0016V14.3365C18.6042 14.9025 18.1336 15.1308 17.531 15.1308C16.1926 15.1308 15.2425 14.0979 15.2425 12.6293C15.2425 11.237 16.2226 10.1386 17.4693 10.1386C18.1031 10.1386 18.583 10.3794 19.1355 10.9546V9.29027C18.5522 8.97525 18.0724 8.84479 17.5006 8.84479C15.4871 8.84479 13.8729 10.5311 13.8729 12.6398Z" fill="#201D1C"/>
<path d="M29.6732 13.8799L27.8563 9.00867H26.4044L29.2957 16.4468H30.0109L32.9545 9.00867H31.5138L29.6732 13.8799Z" fill="#201D1C"/>
<path d="M33.5554 16.2607L37.3244 16.2607V15.033H34.8833V13.0755H37.2344V11.8471H34.8833V10.2374H37.3244V9.0087H33.5554V16.2607" fill="#201D1C"/>
<path fill-rule="evenodd" clip-rule="evenodd" d="M40.1752 9.0087C41.7079 9.0087 42.5866 9.79202 42.5866 11.1497C42.5866 12.2601 42.0354 12.9889 41.0344 13.2056L43.1793 16.2607H41.5449L39.7053 13.3475H39.532V16.2607H38.2046V9.0087H40.1752ZM39.532 12.3475H39.9202C40.7689 12.3475 41.2189 11.9549 41.2189 11.2259C41.2189 10.5201 40.7689 10.151 39.9412 10.151H39.532V12.3475Z" fill="#201D1C"/>
<path fill-rule="evenodd" clip-rule="evenodd" d="M43.4003 8.62217C43.6892 8.62217 43.8537 8.7421 43.8537 8.96145C43.8537 9.11415 43.7605 9.22687 43.5921 9.26855L43.9859 9.72217H43.637L43.3017 9.29553V9.72217H43.0157V8.62217H43.4003ZM43.3017 9.1115H43.35C43.4935 9.1115 43.5677 9.06283 43.5677 8.96548C43.5677 8.87078 43.4945 8.82403 43.353 8.82403H43.3017V9.1115Z" fill="#201D1C"/>
<path fill-rule="evenodd" clip-rule="evenodd" d="M42.7152 9.40201C42.7152 9.09338 42.9601 8.84633 43.2686 8.84633C43.5691 8.84633 43.8152 9.09775 43.8152 9.40201C43.8152 9.70778 43.5691 9.95776 43.2686 9.95776C42.9629 9.95776 42.7152 9.71043 42.7152 9.40201ZM42.8252 9.40282C42.8252 9.65573 43.0237 9.85845 43.2665 9.85845C43.508 9.85845 43.705 9.6536 43.705 9.40282C43.705 9.15364 43.508 8.94638 43.2665 8.94638C43.0211 8.94638 42.8252 9.14899 42.8252 9.40282Z" fill="#201D1C"/>
<path fill-rule="evenodd" clip-rule="evenodd" d="M19.5696 12.6612C19.5696 12.6612 19.5696 12.6612 19.5696 12.6589C19.5696 10.5294 21.1925 8.80198 23.1932 8.80198C25.196 8.80198 26.8189 10.5294 26.8189 12.6589C26.8189 12.6612 26.8189 12.6612 26.8189 12.6612C26.8189 14.7907 25.196 16.5181 23.1932 16.5181C21.1925 16.5181 19.5696 14.7907 19.5696 12.6612Z" fill="url(#paint0_linear_14669_5274)"/>
<defs>
<linearGradient id="paint0_linear_14669_5274" x1="19.5696" y1="16.5181" x2="19.5696" y2="8.80198" gradientUnits="userSpaceOnUse">
<stop stop-color="#E0481E"/>
<stop offset="1" stop-color="#F59314"/>
</linearGradient>
</defs>
</svg>
