<svg width="29" height="24" viewBox="0 0 29 24" fill="none" xmlns="http://www.w3.org/2000/svg">
<path fill-rule="evenodd" clip-rule="evenodd" d="M8.52737 3.51489C13.1665 3.51489 16.9274 7.31289 16.9274 12.0006C16.9274 16.687 13.1665 20.485 8.52737 20.485C3.88701 20.485 0.126099 16.687 0.126099 12.0006C0.126099 7.31289 3.88701 3.51489 8.52737 3.51489Z" fill="#F22F12"/>
<path fill-rule="evenodd" clip-rule="evenodd" d="M19.7271 3.64307C24.3089 3.77164 27.9998 7.50021 27.8725 12.1288C27.7453 16.7574 24.0544 20.4859 19.4725 20.3574C14.8907 20.2288 11.3271 16.6288 11.3271 12.0002C11.3271 7.37164 15.1453 3.64307 19.7271 3.64307Z" fill="#F79F1A"/>
<path fill-rule="evenodd" clip-rule="evenodd" d="M11.3276 12C11.3276 9.55719 12.3458 7.37147 14.1264 5.82861C17.5627 8.78576 17.8185 14.0572 14.8913 17.4L14.1264 18.1715C12.3458 16.6286 11.3276 14.4429 11.3276 12Z" fill="#FF5F01"/>
</svg>
