<svg width="36" height="24" viewBox="0 0 36 24" fill="none" xmlns="http://www.w3.org/2000/svg">
<path fill-rule="evenodd" clip-rule="evenodd" d="M7.41813 14.6726L10.2412 7.24985L13.2055 7.3899L8.68711 18.1738H5.72426L3.18347 8.65036C3.29965 8.71234 3.41414 8.77658 3.52686 8.84304C2.52741 8.20179 1.40349 7.74293 0.218079 7.52855V7.24985H4.87761C5.44082 7.24985 6.00686 7.67 6.1466 8.22881L7.1361 13.1306C7.13522 13.1284 7.13433 13.1262 7.13345 13.124C7.13424 13.1262 7.13503 13.1284 7.13582 13.1306L7.41813 14.6726ZM30.8499 11.1713C30.8499 11.1713 30.003 13.6922 29.7207 14.2524H32.1203C31.9777 13.6922 31.4145 11.1713 31.4145 11.1713L31.272 10.1909C31.1322 10.6097 30.8499 11.1713 30.8499 11.1713ZM30.9911 7.24985H33.2495L35.5066 18.0324H32.6835C32.6835 18.0324 32.5438 16.7733 32.4026 16.3532H28.7326C28.5914 16.6319 28.168 18.0324 28.168 18.0324H25.2037L29.4384 8.09016C29.7207 7.52855 30.2853 7.1084 30.9911 7.24985ZM23.3687 7.1084C24.2142 7.1084 25.0625 7.24985 25.9095 7.52855L25.486 9.90942H25.3448C24.6391 9.62932 23.9333 9.49067 23.2275 9.49067C22.0969 9.49067 21.5337 10.0509 21.5337 10.471C21.5337 10.9942 22.0273 11.2731 22.9022 11.7673C22.9618 11.801 23.0232 11.8357 23.0864 11.8715C24.7802 12.5718 25.486 13.5522 25.486 14.8112C25.486 17.0534 23.5084 18.4539 20.5456 18.4539C19.4163 18.4539 18.2871 18.3125 17.299 17.8937L17.7225 15.5115L18.1459 15.6529C18.9929 16.0731 19.8398 16.2117 20.8279 16.2117C21.5337 16.3532 22.3806 15.793 22.5217 15.0927C22.6629 14.5311 22.2394 14.2524 21.1102 13.6922C19.6986 13.2721 18.7106 12.1516 18.568 10.7511C18.568 8.50891 20.5456 7.1084 23.3687 7.1084ZM14.4759 7.3899L12.6409 18.1738H15.464L17.299 7.3899H14.4759Z" fill="#1A1F71"/>
</svg>
