<svg width="38" height="24" viewBox="0 0 38 24" fill="none" xmlns="http://www.w3.org/2000/svg">
<g clip-path="url(#clip0_14669_5217)">
<path d="M34.5227 0H3.74847C3.6203 0 3.4919 0 3.36396 0.000747416C3.25581 0.00151748 3.14791 0.00271788 3.04001 0.00566224C2.80469 0.0120266 2.56735 0.0259104 2.33497 0.0676751C2.09888 0.110165 1.87918 0.17947 1.66486 0.288593C1.45415 0.395745 1.26125 0.535897 1.09408 0.703137C0.92684 0.870377 0.786688 1.06296 0.679558 1.27389C0.570413 1.48822 0.501062 1.70798 0.458867 1.94426C0.416878 2.1767 0.402901 2.41399 0.396559 2.64907C0.39366 2.75697 0.392417 2.86487 0.391712 2.97274C0.390965 3.10096 0.391214 3.22909 0.391214 3.35753V20.6427C0.391214 20.7712 0.390965 20.8991 0.391712 21.0275C0.392417 21.1354 0.39366 21.2433 0.396559 21.3512C0.402901 21.5861 0.416878 21.8234 0.458867 22.0557C0.501062 22.2921 0.570413 22.5118 0.679558 22.7261C0.786688 22.9371 0.92684 23.1299 1.09408 23.2969C1.26125 23.4644 1.45415 23.6045 1.66486 23.7114C1.87918 23.8208 2.09888 23.8902 2.33497 23.9326C2.56735 23.9741 2.80469 23.9882 3.04001 23.9946C3.14791 23.9971 3.25581 23.9985 3.36396 23.999C3.4919 24 3.6203 24 3.74847 24H34.5227C34.6507 24 34.7791 24 34.907 23.999C35.0149 23.9985 35.1228 23.9971 35.2312 23.9946C35.466 23.9882 35.7033 23.9741 35.9363 23.9326C36.172 23.8902 36.3918 23.8208 36.6061 23.7114C36.817 23.6045 37.0094 23.4644 37.1769 23.2969C37.3439 23.1299 37.484 22.9371 37.5914 22.7261C37.7008 22.5118 37.7701 22.2921 37.8121 22.0557C37.8541 21.8234 37.8677 21.5861 37.8741 21.3512C37.877 21.2433 37.8785 21.1354 37.879 21.0275C37.88 20.8991 37.88 20.7712 37.88 20.6427V3.35753C37.88 3.22909 37.88 3.10096 37.879 2.97274C37.8785 2.86487 37.877 2.75697 37.8741 2.64907C37.8677 2.41399 37.8541 2.1767 37.8121 1.94426C37.7701 1.70798 37.7008 1.48822 37.5914 1.27389C37.484 1.06296 37.3439 0.870377 37.1769 0.703137C37.0094 0.535897 36.817 0.395745 36.6061 0.288593C36.3918 0.17947 36.172 0.110165 35.9363 0.0676751C35.7033 0.0259104 35.466 0.0120266 35.2312 0.00566224C35.1228 0.00271788 35.0149 0.00151748 34.907 0.000747416C34.7791 0 34.6507 0 34.5227 0Z" fill="black"/>
<path d="M34.5227 0.800049L34.9013 0.800774C35.0039 0.801498 35.1064 0.802608 35.2096 0.805417C35.3889 0.810264 35.5988 0.81998 35.7944 0.855041C35.9644 0.885662 36.107 0.932228 36.2438 1.0019C36.3789 1.07055 36.5027 1.16051 36.6108 1.26843C36.7193 1.37708 36.8094 1.50106 36.8789 1.63765C36.9482 1.77343 36.9945 1.91535 37.0249 2.08662C37.0599 2.28009 37.0695 2.4905 37.0745 2.67099C37.0772 2.77286 37.0786 2.87474 37.0791 2.97904C37.0801 3.10517 37.08 3.23123 37.08 3.35762V20.6428C37.08 20.7692 37.0801 20.895 37.0791 21.0239C37.0786 21.1257 37.0772 21.2276 37.0744 21.3296C37.0695 21.5099 37.0599 21.7201 37.0245 21.9159C36.9945 22.0848 36.9482 22.2268 36.8786 22.3632C36.8092 22.4995 36.7193 22.6233 36.6112 22.7313C36.5026 22.84 36.3792 22.9297 36.2425 22.999C36.1067 23.0683 35.9643 23.1148 35.796 23.1451C35.5964 23.1807 35.3778 23.1905 35.2131 23.1949C35.1095 23.1973 35.0064 23.1987 34.9008 23.1992C34.7749 23.2001 34.6486 23.2001 34.5227 23.2001H3.74848C3.7468 23.2001 3.74517 23.2001 3.74347 23.2001C3.61904 23.2001 3.49436 23.2001 3.36766 23.1992C3.26436 23.1987 3.16128 23.1973 3.06163 23.195C2.89321 23.1905 2.67444 23.1807 2.47651 23.1454C2.30672 23.1148 2.16437 23.0683 2.02675 22.9981C1.89133 22.9294 1.76805 22.8398 1.65932 22.7309C1.55142 22.6232 1.46175 22.4997 1.39242 22.3632C1.32302 22.2269 1.27659 22.0845 1.24607 21.9136C1.21078 21.7182 1.20108 21.5088 1.19624 21.3298C1.19347 21.2273 1.19232 21.1248 1.19166 21.023L1.19116 20.7222L1.19118 20.6428V3.35762L1.19116 3.27821L1.19164 2.97809C1.19232 2.8756 1.19347 2.77314 1.19624 2.67074C1.20108 2.49156 1.21078 2.28202 1.24636 2.08502C1.27662 1.91562 1.32302 1.77325 1.39278 1.63625C1.46157 1.50083 1.55139 1.37721 1.65986 1.26877C1.7679 1.16069 1.89158 1.07084 2.02786 1.00153C2.164 0.932205 2.30662 0.885662 2.47642 0.855108C2.67207 0.819957 2.88204 0.810263 3.06188 0.805394C3.16439 0.802608 3.26689 0.801498 3.36863 0.800796L3.74848 0.800049H34.5227Z" fill="white"/>
<path d="M10.6253 8.07226C10.9463 7.67077 11.1641 7.13169 11.1067 6.58081C10.6368 6.60418 10.0634 6.89081 9.73144 7.29261C9.43336 7.6367 9.16954 8.19835 9.23832 8.72613C9.76579 8.77189 10.2928 8.46248 10.6253 8.07226Z" fill="black"/>
<path d="M11.1007 8.82923C10.3347 8.7836 9.68341 9.26398 9.3176 9.26398C8.95159 9.26398 8.39141 8.85222 7.78554 8.86332C6.99695 8.8749 6.26524 9.32077 5.86506 10.0299C5.04198 11.4486 5.64785 13.5529 6.44826 14.7083C6.83696 15.2799 7.3054 15.9093 7.92265 15.8867C8.50585 15.8638 8.73444 15.5091 9.44334 15.5091C10.1517 15.5091 10.3576 15.8867 10.975 15.8753C11.6152 15.8638 12.0154 15.3034 12.4041 14.7312C12.85 14.0796 13.0326 13.4504 13.0441 13.4159C13.0326 13.4044 11.8096 12.9352 11.7982 11.5284C11.7867 10.3504 12.7584 9.7901 12.8042 9.75535C12.2554 8.94374 11.398 8.85222 11.1007 8.82923Z" fill="black"/>
<path d="M17.7706 7.23511C19.4355 7.23511 20.5948 8.38275 20.5948 10.0536C20.5948 11.7305 19.4116 12.8841 17.7288 12.8841H15.8854V15.8156H14.5536V7.23511L17.7706 7.23511ZM15.8854 11.7661H17.4136C18.5732 11.7661 19.2332 11.1419 19.2332 10.0596C19.2332 8.97744 18.5732 8.35901 17.4196 8.35901H15.8854V11.7661Z" fill="black"/>
<path d="M20.9428 14.0376C20.9428 12.9434 21.7812 12.2715 23.2679 12.1882L24.9803 12.0872V11.6056C24.9803 10.9098 24.5105 10.4936 23.7258 10.4936C22.9823 10.4936 22.5185 10.8503 22.4056 11.4093H21.1926C21.264 10.2795 22.2272 9.44702 23.7733 9.44702C25.2895 9.44702 26.2587 10.2498 26.2587 11.5044V15.8155H25.0278V14.7868H24.9982C24.6355 15.4825 23.8446 15.9225 23.0241 15.9225C21.7991 15.9225 20.9428 15.1614 20.9428 14.0376ZM24.9803 13.4727V12.9792L23.4402 13.0743C22.6731 13.1278 22.2391 13.4667 22.2391 14.0019C22.2391 14.5489 22.691 14.9057 23.3808 14.9057C24.2786 14.9057 24.9803 14.2873 24.9803 13.4727Z" fill="black"/>
<path d="M27.4208 18.1168V17.0762C27.5158 17.0999 27.7298 17.0999 27.8369 17.0999C28.4315 17.0999 28.7526 16.8502 28.9488 16.208C28.9488 16.1961 29.0619 15.8275 29.0619 15.8215L26.8024 9.56006H28.1936L29.7755 14.6501H29.7991L31.381 9.56006H32.7367L30.3937 16.1425C29.8588 17.6589 29.2403 18.1465 27.944 18.1465C27.8369 18.1465 27.5158 18.1346 27.4208 18.1168Z" fill="black"/>
</g>
<defs>
<clipPath id="clip0_14669_5217">
<rect width="37.4888" height="24" fill="white" transform="translate(0.391174)"/>
</clipPath>
</defs>
</svg>
