<svg width="46" height="24" viewBox="0 0 46 24" fill="none" xmlns="http://www.w3.org/2000/svg">
<g clip-path="url(#clip0_14669_5229)">
<path d="M33.982 0H12.862C6.262 0 0.862 5.4 0.862 12C0.862 18.6 6.262 24 12.862 24H33.982C40.582 24 45.982 18.6 45.982 12C45.982 5.4 40.582 0 33.982 0Z" fill="white"/>
<path d="M33.982 0.972C35.464 0.972 36.904 1.266 38.26 1.842C39.574 2.4 40.75 3.198 41.77 4.212C42.784 5.226 43.582 6.408 44.14 7.722C44.716 9.078 45.01 10.518 45.01 12C45.01 13.482 44.716 14.922 44.14 16.278C43.582 17.592 42.784 18.768 41.77 19.788C40.756 20.802 39.574 21.6 38.26 22.158C36.904 22.734 35.464 23.028 33.982 23.028H12.862C11.38 23.028 9.94 22.734 8.584 22.158C7.27 21.6 6.094 20.802 5.074 19.788C4.06 18.774 3.262 17.592 2.704 16.278C2.128 14.922 1.834 13.482 1.834 12C1.834 10.518 2.128 9.078 2.704 7.722C3.262 6.408 4.06 5.232 5.074 4.212C6.088 3.198 7.27 2.4 8.584 1.842C9.94 1.266 11.38 0.972 12.862 0.972H33.982ZM33.982 0H12.862C6.262 0 0.862 5.4 0.862 12C0.862 18.6 6.262 24 12.862 24H33.982C40.582 24 45.982 18.6 45.982 12C45.982 5.4 40.582 0 33.982 0Z" fill="#3C4043"/>
<path d="M22.378 12.8521V16.4821H21.226V7.51807H24.28C25.054 7.51807 25.714 7.77607 26.254 8.29207C26.806 8.80807 27.082 9.43807 27.082 10.1821C27.082 10.9441 26.806 11.5741 26.254 12.0841C25.72 12.5941 25.06 12.8461 24.28 12.8461H22.378V12.8521ZM22.378 8.62207V11.7481H24.304C24.76 11.7481 25.144 11.5921 25.444 11.2861C25.75 10.9801 25.906 10.6081 25.906 10.1881C25.906 9.77407 25.75 9.40807 25.444 9.10207C25.144 8.78407 24.766 8.62807 24.304 8.62807H22.378V8.62207Z" fill="#3C4043"/>
<path d="M30.094 10.146C30.946 10.146 31.618 10.374 32.11 10.83C32.602 11.286 32.848 11.91 32.848 12.702V16.482H31.75V15.63H31.702C31.228 16.332 30.592 16.68 29.8 16.68C29.122 16.68 28.558 16.482 28.102 16.08C27.646 15.678 27.418 15.18 27.418 14.58C27.418 13.944 27.658 13.44 28.138 13.068C28.618 12.69 29.26 12.504 30.058 12.504C30.742 12.504 31.306 12.63 31.744 12.882V12.618C31.744 12.216 31.588 11.88 31.27 11.598C30.952 11.316 30.58 11.178 30.154 11.178C29.512 11.178 29.002 11.448 28.63 11.994L27.616 11.358C28.174 10.548 29.002 10.146 30.094 10.146ZM28.606 14.598C28.606 14.898 28.732 15.15 28.99 15.348C29.242 15.546 29.542 15.648 29.884 15.648C30.37 15.648 30.802 15.468 31.18 15.108C31.558 14.748 31.75 14.328 31.75 13.842C31.39 13.56 30.892 13.416 30.25 13.416C29.782 13.416 29.392 13.53 29.08 13.752C28.762 13.986 28.606 14.268 28.606 14.598Z" fill="#3C4043"/>
<path d="M39.112 10.344L35.272 19.176H34.084L35.512 16.086L32.98 10.344H34.234L36.058 14.748H36.082L37.858 10.344H39.112Z" fill="#3C4043"/>
<path d="M17.7958 12.1199C17.7958 11.7443 17.7622 11.3849 17.6998 11.0393H12.871V13.0193L15.652 13.0199C15.5392 13.6787 15.1762 14.2403 14.62 14.6147V15.8993H16.2754C17.242 15.0047 17.7958 13.6823 17.7958 12.1199Z" fill="#4285F4"/>
<path d="M14.6206 14.6148C14.1598 14.9256 13.5664 15.1074 12.8722 15.1074C11.5312 15.1074 10.3936 14.2038 9.98616 12.9858H8.27856V14.3106C9.12456 15.9894 10.8634 17.1414 12.8722 17.1414C14.2606 17.1414 15.427 16.6848 16.276 15.8988L14.6206 14.6148Z" fill="#34A853"/>
<path d="M9.82539 12.003C9.82539 11.661 9.88239 11.3304 9.98619 11.0196V9.69482H8.27859C7.92879 10.389 7.73199 11.1726 7.73199 12.003C7.73199 12.8334 7.92939 13.617 8.27859 14.3112L9.98619 12.9864C9.88239 12.6756 9.82539 12.345 9.82539 12.003Z" fill="#FABB05"/>
<path d="M12.8722 8.89801C13.63 8.89801 14.3086 9.15901 14.8444 9.66901L16.3114 8.20321C15.4204 7.37341 14.2588 6.86401 12.8722 6.86401C10.864 6.86401 9.12456 8.01601 8.27856 9.69481L9.98616 11.0196C10.3936 9.80161 11.5312 8.89801 12.8722 8.89801Z" fill="#E94235"/>
</g>
<defs>
<clipPath id="clip0_14669_5229">
<rect width="45.12" height="24" fill="white" transform="translate(0.880005)"/>
</clipPath>
</defs>
</svg>
