<svg width="39" height="24" viewBox="0 0 39 24" fill="none" xmlns="http://www.w3.org/2000/svg">
<path d="M7.50631 0H17.0732C18.4087 0 19.2393 1.08851 18.9278 2.4284L14.4737 21.5515C14.1593 22.8867 12.8223 23.9762 11.4859 23.9762H1.91988C0.586289 23.9762 -0.246184 22.8867 0.0653519 21.5515L4.5213 2.4284C4.83284 1.08851 6.16923 0 7.50631 0Z" fill="#E21836"/>
<path d="M16.2772 0H27.2789C28.6141 0 28.012 1.08851 27.6979 2.4284L23.2446 21.5515C22.9321 22.8867 23.0296 23.9762 21.6915 23.9762H10.6898C9.35181 23.9762 8.52377 22.8867 8.8381 21.5515L13.2913 2.4284C13.6075 1.08851 14.941 0 16.2772 0Z" fill="#00447C"/>
<path d="M26.8424 0H36.4093C37.7467 0 38.5773 1.08851 38.2632 2.4284L33.8098 21.5515C33.4954 22.8867 32.1574 23.9762 30.8203 23.9762H21.2579C19.9198 23.9762 19.0899 22.8867 19.4033 21.5515L23.8574 2.4284C24.1689 1.08851 25.5044 0 26.8424 0Z" fill="#007B84"/>
<path d="M10.0048 6.12849C9.02095 6.13852 8.7304 6.12849 8.63759 6.10657C8.60191 6.2761 7.93803 9.33853 7.93617 9.34109C7.79323 9.96067 7.68922 10.4023 7.33595 10.6875C7.13541 10.8533 6.90129 10.9333 6.62986 10.9333C6.19357 10.9333 5.9394 10.7167 5.89672 10.3058L5.88856 10.1647C5.88856 10.1647 6.02148 9.3348 6.02148 9.33013C6.02148 9.33013 6.71824 6.53937 6.84299 6.17047C6.84952 6.14948 6.85139 6.13852 6.85302 6.12849C5.49681 6.14038 5.2564 6.12849 5.23984 6.10657C5.23075 6.13665 5.19717 6.30968 5.19717 6.30968L4.48572 9.45512L4.42462 9.72189L4.3064 10.5945C4.3064 10.8533 4.35723 11.0646 4.45843 11.2432C4.78256 11.8096 5.70714 11.8945 6.23018 11.8945C6.90409 11.8945 7.53625 11.7513 7.96345 11.4899C8.70498 11.0517 8.89899 10.3669 9.07202 9.75826L9.15223 9.44603C9.15223 9.44603 9.86998 6.54753 9.99194 6.17047C9.9966 6.14948 9.99847 6.13852 10.0048 6.12849ZM12.4468 8.46674C12.2738 8.46674 11.9576 8.50871 11.6736 8.64793C11.5705 8.70086 11.4731 8.76195 11.3702 8.82281L11.463 8.48773L11.4122 8.4313C10.8099 8.55325 10.6751 8.56957 10.1187 8.64793L10.0721 8.67894C10.0075 9.21457 9.95012 9.61728 9.71064 10.6701C9.61947 11.0581 9.52479 11.4499 9.42989 11.837L9.45554 11.8862C10.0257 11.8561 10.1987 11.8561 10.6942 11.8643L10.7343 11.8207C10.7973 11.4982 10.8055 11.4226 10.9449 10.7695C11.0104 10.4598 11.1471 9.77934 11.2145 9.53706C11.3383 9.4797 11.4605 9.42327 11.5771 9.42327C11.8548 9.42327 11.821 9.66555 11.8102 9.76209C11.7984 9.92415 11.6972 10.4535 11.5934 10.908L11.5241 11.2013C11.4759 11.4179 11.4229 11.6285 11.3747 11.8433L11.3956 11.8862C11.9576 11.8561 12.129 11.8561 12.6089 11.8643L12.6653 11.8207C12.7521 11.317 12.7775 11.1822 12.9314 10.4488L13.0088 10.1119C13.1592 9.45242 13.2348 9.11803 13.121 8.84567C13.0007 8.54043 12.712 8.46674 12.4468 8.46674ZM15.1749 9.15718C14.8762 9.21454 14.6857 9.25279 14.4964 9.2775C14.3087 9.30759 14.1256 9.33487 13.8369 9.37498L13.8141 9.39573L13.7931 9.41229C13.763 9.62728 13.742 9.81313 13.7021 10.0316C13.6683 10.2576 13.6163 10.5143 13.5317 10.8832C13.4661 11.1656 13.4323 11.264 13.395 11.3634C13.3587 11.4627 13.3185 11.5592 13.2449 11.837L13.2621 11.8626L13.2766 11.8862C13.5464 11.8733 13.7229 11.8642 13.9043 11.8626C14.0855 11.8561 14.2732 11.8626 14.5638 11.8642L14.5892 11.8435L14.6165 11.8206C14.6584 11.5702 14.6647 11.5028 14.6904 11.3806C14.7158 11.2496 14.7596 11.0681 14.8671 10.5836C14.918 10.356 14.9746 10.1291 15.0273 9.89685C15.0821 9.66552 15.1395 9.4377 15.1941 9.21011L15.1859 9.1826L15.1749 9.15718ZM15.1813 8.22626C14.9099 8.06606 14.4335 8.11689 14.1128 8.33818C13.7931 8.55505 13.7568 8.86285 14.0273 9.02515C14.294 9.18092 14.7723 9.13451 15.0901 8.91136C15.4091 8.68983 15.449 8.38482 15.1813 8.22626ZM16.8228 11.9364C17.372 11.9364 17.9349 11.785 18.3586 11.3359C18.6846 10.9717 18.834 10.4297 18.8858 10.2066C19.0544 9.46692 18.9231 9.12157 18.7583 8.91124C18.5078 8.59061 18.0652 8.48777 17.6061 8.48777C17.33 8.48777 16.6724 8.51506 16.1587 8.98866C15.7898 9.33027 15.6193 9.79385 15.5165 10.2383C15.4127 10.6911 15.2933 11.5064 16.043 11.8097C16.2744 11.9091 16.6078 11.9364 16.8228 11.9364ZM16.7799 10.2721C16.9065 9.712 17.056 9.2419 17.4375 9.2419C17.7364 9.2419 17.7581 9.59168 17.6252 10.1537C17.6014 10.2784 17.4923 10.7422 17.3447 10.9397C17.2416 11.0855 17.1197 11.1738 16.9849 11.1738C16.9448 11.1738 16.7062 11.1738 16.7025 10.8196C16.7006 10.6447 16.7363 10.4661 16.7799 10.2721ZM20.2586 11.8643L20.3015 11.8207C20.3623 11.4982 20.3724 11.4224 20.5072 10.7695C20.5745 10.4598 20.714 9.77941 20.7795 9.53713C20.9036 9.47954 21.0237 9.42311 21.144 9.42311C21.4198 9.42311 21.3863 9.66539 21.3753 9.76192C21.3653 9.92422 21.2641 10.4533 21.1584 10.9078L21.0929 11.2011C21.0428 11.418 20.9882 11.6283 20.9399 11.8433L20.9609 11.8862C21.5248 11.8562 21.6896 11.8562 22.1723 11.8643L22.2306 11.8207C22.3153 11.3168 22.3381 11.182 22.4967 10.4489L22.5722 10.1117C22.7234 9.45225 22.7998 9.1181 22.6879 8.84574C22.5641 8.5405 22.2735 8.46681 22.0121 8.46681C21.8389 8.46681 21.521 8.50855 21.2387 8.648C21.1377 8.70093 21.0365 8.76179 20.9371 8.82289L21.0237 8.4878L20.9773 8.43113C20.3752 8.55332 20.2376 8.56964 19.6819 8.648L19.6392 8.67901C19.5718 9.21464 19.517 9.61712 19.2776 10.6702C19.1864 11.0582 19.0917 11.45 18.997 11.837L19.0225 11.8862C19.5935 11.8562 19.764 11.8562 20.2586 11.8643ZM24.4012 11.8861C24.4367 11.7131 24.6473 10.6876 24.6491 10.6876C24.6491 10.6876 24.8284 9.93507 24.8394 9.90778C24.8394 9.90778 24.8958 9.82943 24.9523 9.79842H25.0353C25.8185 9.79842 26.703 9.79842 27.3963 9.28844C27.868 8.93866 28.1905 8.42215 28.3344 7.79442C28.3717 7.64052 28.3992 7.45747 28.3992 7.27441C28.3992 7.034 28.3509 6.79615 28.2115 6.6103C27.858 6.11571 27.154 6.10662 26.3413 6.10289C26.3388 6.10289 25.9407 6.10662 25.9407 6.10662C24.9005 6.11944 24.4833 6.11571 24.3119 6.09473C24.2975 6.17051 24.2702 6.30529 24.2702 6.30529C24.2702 6.30529 23.8976 8.03227 23.8976 8.03507C23.8976 8.03507 23.0059 11.7068 22.9639 11.8798C23.8721 11.8689 24.2445 11.8689 24.4012 11.8861ZM25.0917 8.81834C25.0917 8.81834 25.4879 7.09486 25.486 7.10139L25.4988 7.01301L25.5044 6.94562L25.6628 6.96194C25.6628 6.96194 26.4799 7.03213 26.499 7.034C26.8215 7.15875 26.9544 7.48032 26.8616 7.90005C26.7769 8.28364 26.5281 8.60614 26.2084 8.76191C25.9452 8.89389 25.6227 8.90485 25.2904 8.90485H25.0754L25.0917 8.81834ZM27.5584 10.304C27.4537 10.7504 27.3334 11.5656 28.0794 11.8561C28.3172 11.9573 28.5304 11.9874 28.747 11.9764C28.9757 11.9641 29.1877 11.8494 29.384 11.6843C29.3663 11.7521 29.3486 11.82 29.3309 11.8881L29.3647 11.9317C29.9013 11.9091 30.0678 11.9091 30.6491 11.9135L30.7018 11.8734C30.7867 11.3744 30.8666 10.8898 31.0872 9.93513C31.1947 9.47786 31.302 9.02501 31.4123 8.5696L31.395 8.51946C30.7948 8.63069 30.6344 8.65448 30.057 8.73633L30.0132 8.772C30.0074 8.81841 30.0013 8.86295 29.9957 8.90749C29.9059 8.76244 29.7758 8.63862 29.575 8.56144C29.3183 8.46047 28.7153 8.59059 28.1969 9.06255C27.8327 9.39951 27.6578 9.86122 27.5584 10.304ZM28.819 10.3313C28.9475 9.78123 29.0951 9.31579 29.4776 9.31579C29.7194 9.31579 29.8467 9.53895 29.8208 9.91951C29.8003 10.0144 29.7781 10.1145 29.7518 10.2276C29.7135 10.391 29.672 10.5531 29.6317 10.7154C29.5907 10.8264 29.5428 10.9311 29.4904 11.0008C29.392 11.1402 29.1579 11.2268 29.0231 11.2268C28.9848 11.2268 28.7489 11.2268 28.7407 10.8788C28.7388 10.7056 28.7745 10.5272 28.819 10.3313ZM35.402 8.51501L35.3556 8.46208C34.7617 8.5824 34.6542 8.60152 34.1085 8.67521L34.0684 8.71532C34.0665 8.72185 34.0649 8.73187 34.0621 8.74097L34.0602 8.73187C33.654 9.66905 33.6659 9.46687 33.3353 10.2047C33.3334 10.1711 33.3334 10.1501 33.3315 10.1144L33.2488 8.51501L33.1968 8.46208C32.5746 8.5824 32.5599 8.60152 31.9854 8.67521L31.9406 8.71532C31.9343 8.73444 31.9343 8.75542 31.9306 8.77828L31.9343 8.78644C32.0061 9.15347 31.9889 9.07162 32.0609 9.65086C32.0945 9.93511 32.1393 10.221 32.1728 10.5018C32.2295 10.9716 32.2612 11.2029 32.3305 11.92C31.9424 12.5603 31.8506 12.8026 31.477 13.3646L31.4796 13.3702L31.2165 13.7862C31.1865 13.83 31.1592 13.8601 31.1209 13.8729C31.079 13.8937 31.0244 13.8974 30.9486 13.8974H30.8029L30.5862 14.618L31.3294 14.6308C31.7657 14.6289 32.0399 14.4249 32.1875 14.1506L32.6548 13.3499H32.6474L32.6966 13.2935C33.0109 12.6167 35.402 8.51501 35.402 8.51501ZM27.5584 17.9783H27.2431L28.41 14.1188H28.7971L28.92 13.7212L28.9319 14.1634C28.9174 14.4366 29.1324 14.6789 29.6972 14.6388H30.3503L30.5751 13.8957H30.3294C30.1881 13.8957 30.1225 13.86 30.1307 13.7835L30.1188 13.3337H28.9093V13.336C28.5182 13.3442 27.3504 13.3736 27.114 13.4365C26.8278 13.5102 26.5263 13.7271 26.5263 13.7271L26.6448 13.329H25.5134L25.2776 14.1188L24.0951 18.0373H23.8657L23.6407 18.7751H25.8942L25.8186 19.0211H26.929L27.0027 18.7751H27.3143L27.5584 17.9783ZM26.6338 14.903C26.4526 14.9532 26.1155 15.1052 26.1155 15.1052L26.4153 14.1188H27.3143L27.0974 14.8375C27.0974 14.8375 26.8197 14.8538 26.6338 14.903ZM26.6511 16.3122C26.6511 16.3122 26.3687 16.3476 26.1828 16.3896C25.9998 16.4451 25.6565 16.62 25.6565 16.62L25.9662 15.5935H26.8698L26.6511 16.3122ZM26.1474 17.9874H25.2457L25.5071 17.1211H26.406L26.1474 17.9874ZM28.319 15.5935H29.6187L29.432 16.1984H28.1149L27.9172 16.8597H29.0696L28.197 18.0883C28.1359 18.1786 28.0811 18.2105 28.0203 18.2359C27.9592 18.267 27.879 18.3033 27.7861 18.3033H27.4664L27.2468 19.0276H28.083C28.5176 19.0276 28.7744 18.8299 28.964 18.5703L29.5623 17.7514L29.6908 18.5829C29.7181 18.7387 29.83 18.8299 29.9058 18.8653C29.9895 18.9073 30.076 18.9793 30.1982 18.9901C30.3293 18.9957 30.4239 19.0001 30.4869 19.0001H30.8978L31.1445 18.1895H30.9824C30.8894 18.1895 30.7292 18.1739 30.7019 18.1448C30.6746 18.1093 30.6746 18.0548 30.6599 17.9717L30.5296 17.1383H29.9958L30.2299 16.8597H31.5444L31.7466 16.1984H30.5296L30.7192 15.5935H31.9324L32.1574 14.8475H28.5403L28.319 15.5935ZM17.341 18.1558L17.6444 17.1466H18.8912L19.119 16.3959H17.871L18.0615 15.7747H19.2811L19.5071 15.0479H16.4556L16.2343 15.7747H16.9276L16.7426 16.3959H16.0475L15.8171 17.1594H16.5102L16.1058 18.4946C16.0512 18.6714 16.1315 18.7388 16.1823 18.8208C16.2343 18.9008 16.287 18.9538 16.4055 18.9838C16.5276 19.0111 16.6114 19.0274 16.7252 19.0274H18.1308L18.3812 18.1959L17.7582 18.2815C17.6378 18.2815 17.3046 18.267 17.341 18.1558ZM17.484 13.3245L17.168 13.8955C17.1004 14.0203 17.0396 14.0977 16.9848 14.1334C16.9365 14.1635 16.8409 14.1761 16.7024 14.1761H16.5375L16.3172 14.9066H16.8647C17.1279 14.9066 17.3301 14.8101 17.4266 14.7618C17.5304 14.7063 17.5577 14.738 17.6379 14.6606L17.8228 14.5004H19.5326L19.7594 13.7398H18.5079L18.7264 13.3245H17.484ZM20.0081 18.1705C19.979 18.1285 19.9999 18.0546 20.0445 17.9007L20.5118 16.354H22.1742C22.4165 16.3505 22.5913 16.3477 22.7051 16.3395C22.8273 16.3267 22.9602 16.2831 23.1051 16.2047C23.2545 16.1226 23.331 16.0361 23.3956 15.9368C23.4677 15.8377 23.5833 15.6208 23.6827 15.2864L24.2701 13.3291L22.5449 13.3391C22.5449 13.3391 22.0137 13.4174 21.7799 13.504C21.5439 13.6005 21.2067 13.8701 21.2067 13.8701L21.3625 13.3335H20.2968L18.8049 18.2815C18.7519 18.4736 18.7165 18.6131 18.7083 18.6968C18.7055 18.787 18.8221 18.8763 18.8977 18.9437C18.987 19.0111 19.119 19.0001 19.2456 19.0111C19.3787 19.0211 19.5681 19.0274 19.8295 19.0274H20.6484L20.8998 18.1786L20.1667 18.2479C20.0883 18.2479 20.0317 18.2059 20.0081 18.1705ZM20.8133 15.3093H22.5594L22.4484 15.6572C22.4328 15.6654 22.3955 15.6399 22.2178 15.6609H20.7058L20.8133 15.3093ZM21.1631 14.1424H22.9239L22.7972 14.5615C22.7972 14.5615 21.9673 14.5533 21.8344 14.5778C21.2496 14.679 20.908 14.9914 20.908 14.9914L21.1631 14.1424ZM22.4875 16.8223C22.473 16.8743 22.4502 16.906 22.4182 16.9298C22.3828 16.9526 22.3254 16.9608 22.2398 16.9608H21.991L22.0057 16.5371H20.9708L20.9289 18.6085C20.9272 18.7579 20.9417 18.8444 21.0511 18.9137C21.1604 19.0002 21.4974 19.0112 21.9509 19.0112H22.5994L22.8335 18.2358L22.269 18.2668L22.0813 18.2778C22.0556 18.2668 22.0311 18.2568 22.0039 18.2295C21.9801 18.206 21.94 18.2204 21.9465 18.071L21.9509 17.54L22.543 17.5155C22.8627 17.5155 22.9993 17.4115 23.1159 17.3124C23.2271 17.2175 23.2635 17.1084 23.3055 16.9608L23.4048 16.4907H22.5913L22.4875 16.8223Z" fill="#FEFEFE"/>
</svg>
