<svg width="77" height="33" viewBox="0 0 77 33" fill="none" xmlns="http://www.w3.org/2000/svg">
<path d="M1.6254 29.5085C2.54245 29.5335 3.4553 29.7554 4.29794 30.1742L7.35291 31.6925C9.61173 32.8151 12.2726 32.8134 14.5299 31.6878L17.5453 30.1843C19.34 29.2894 21.4543 29.2884 23.2498 30.1816L25.1566 31.1302C28.1234 32.606 31.616 32.6128 34.5885 31.1484L36.5938 30.1605C38.3841 29.2786 40.4872 29.2831 42.2736 30.1729L44.1769 31.1209C47.1529 32.6031 50.6584 32.6064 53.6372 31.1297L55.5702 30.1714C56.3024 29.8084 57.0873 29.594 57.8818 29.5281L59.8369 25.4333C57.7581 25.1526 55.6145 25.489 53.6907 26.4428L51.7576 27.401C49.9646 28.2899 47.855 28.288 46.0636 27.3957L44.1602 26.4477C41.1926 24.9696 37.6979 24.962 34.7237 26.4272L32.7184 27.4151C30.9291 28.2966 28.8273 28.2925 27.0414 27.4041L25.1346 26.4555C22.1518 24.9717 18.6385 24.9733 15.6571 26.46L12.6416 27.9635C11.5706 28.4976 10.308 28.4984 9.23624 27.9657L6.18127 26.4474C4.61962 25.6713 2.9126 25.3022 1.21265 25.3402L1.6254 29.5085Z" fill="white"/>
<path d="M60.8202 31.8485V31.6428C61.6498 30.2325 63.9627 25.146 64.8219 23.0305L65.0293 22.531L59.9036 11.6893C58.8074 9.33873 58.3926 8.48666 57.7112 7.75213V7.57584H65.5033V7.75213C65.2959 7.86965 65.1478 8.28099 65.1478 8.63357C65.1478 9.30935 65.4737 10.0145 65.5922 10.3671L68.3476 17.0955H68.4661L70.7474 11.131C71.0733 10.2789 71.34 9.27997 71.34 8.60419C71.34 8.13409 71.103 7.84027 70.9844 7.75213V7.57584H76.4952V7.75213C75.9323 8.60419 74.8953 11.0135 74.0657 12.982L66.2717 31.8485H60.8202Z" fill="white"/>
<path d="M50.0806 21.7163V21.54C50.6435 20.5704 50.8213 19.9534 50.8213 18.6606V5.432C50.8213 4.41074 50.5609 3.44605 50.1694 2.96712V2.78766C51.7179 2.67641 55.6222 1.07229 56.7695 0.0215338L57.0023 0.134867C56.7276 0.965219 56.5098 3.56654 56.5098 5.00052C56.5098 9.36414 56.5098 13.9427 56.5098 18.308C56.5098 19.4539 56.7468 20.541 57.2505 21.5694V21.7163H50.0806Z" fill="white"/>
<path d="M41.324 21.7083V21.532C41.8869 20.5624 42.0647 19.9454 42.0647 18.6526V12.0711C42.0647 11.0721 41.8573 9.95273 41.4129 9.39448V9.21819C42.8524 9.12279 46.6544 7.71182 47.6051 6.84119L47.7532 6.92933V18.3C47.7532 19.4459 47.9902 20.533 48.4939 21.5613V21.7083H41.324Z" fill="white"/>
<path d="M47.7532 4.5865C46.8381 5.40284 43.4699 6.85713 41.8884 7.04694V2.46043C43.303 2.11364 46.7455 0.671921 47.7532 0V4.5865Z" fill="white"/>
<path d="M22.2252 17.7713C22.2252 15.0682 24.4176 14.3042 27.5582 13.8929C29.8988 13.5697 33.4245 13.2171 33.4245 12.0419C33.4245 11.0135 31.9727 10.5728 29.9876 10.5728C27.4693 10.5728 25.3361 11.2779 24.0325 11.9243V8.01659C26.1064 7.37019 28.2396 7.047 31.2913 7.047C35.0836 7.047 39.113 7.86968 39.113 12.7176V17.9476C39.113 19.1816 39.2019 20.3568 39.8241 21.5615V21.7084H33.4245V19.1522C32.5949 20.5038 30.8172 22.0904 27.8248 22.0904C24.5658 22.0904 22.2252 20.3862 22.2252 17.7713ZM27.973 17.1543C27.973 18.4764 28.8322 18.9465 30.0469 18.9465C31.2913 18.9465 32.6838 18.4764 33.4245 17.8006V14.4512C32.7134 15.0682 31.0542 15.3914 29.7803 15.5676C28.5359 15.7733 27.973 16.2728 27.973 17.1543Z" fill="white"/>
<path d="M10.1412 22.0609C5.87478 22.0609 3.25293 21.3249 0.734569 20.4729L0.304749 15.9495L0.452888 15.8908C2.85274 17.3011 6.70436 18.065 9.63751 18.065C12.8077 18.065 14.0817 17.3011 14.0817 16.1552C14.0817 15.1269 12.6299 14.8624 11.5041 14.6861L6.91175 13.9222C3.74158 13.3934 0.304749 12.2181 0.304749 8.25158C0.304749 3.52115 5.28222 1.43506 10.7634 1.43506C14.1113 1.43506 17.4593 1.93455 19.5332 2.9629L17.9037 6.90003C15.652 5.78353 12.8373 5.25466 10.6152 5.25466C7.80059 5.25466 6.70436 5.9892 6.70436 6.92941C6.70436 8.01653 8.00798 8.25158 9.10421 8.42787L13.2817 9.13303C17.5778 9.8088 20.6294 11.2191 20.6294 14.8624C20.6294 20.0042 15.4742 22.0609 10.1412 22.0609Z" fill="white"/>
</svg> 