<svg width="25" height="25" viewBox="0 0 25 25" fill="none" xmlns="http://www.w3.org/2000/svg">
<rect x="1.59088" width="22.9091" height="24.4441" fill="white"/>
<path fill-rule="evenodd" clip-rule="evenodd" d="M0.5 24.3913H24.5V0H0.5V24.3913ZM24.4999 4.98298V4.03457H21.0218L20.2336 6.27503L19.4482 4.03457H14.8933V7.02506L13.5974 4.03457H9.90795L6.11864 12.7743H9.19409V20.5317L18.6839 20.5521L20.1743 18.8624L21.6754 20.5458H24.4999V19.5735H22.1443L20.1863 17.3904L18.2484 19.5735H15.9062H15.8778H10.2163V12.7537H15.9062V12.7539H18.3146L20.2384 14.9153L22.1677 12.7539H24.4999V11.8059V11.7969L22.7221 11.8129V7.13238L21.044 11.7969H19.4214L17.7084 7.11639V11.7969H15.9303L15.9308 11.7981H13.8379L13.2766 10.4336H10.2329L9.67115 11.7981H7.62903L10.6065 4.98406H12.9658L15.903 11.7341V4.98298L18.7735 4.99301L20.2506 9.18206L21.7372 4.98298H24.4999ZM24.4999 12.8075L21.4186 16.1597L24.4999 19.4768V18.0804L22.7308 16.1414L24.4999 14.2201V12.8075ZM15.9062 12.7847V14.3248H12.0586V15.3912H15.8144V16.9361H12.0586V17.9836H15.9062V19.5427L19.0262 16.1597L15.9062 12.7847ZM10.8623 8.9044L11.7553 6.73521L12.6475 8.9044H10.8623Z" fill="#006FCF"/>
</svg>
