<svg width="32" height="24" viewBox="0 0 32 24" fill="none" xmlns="http://www.w3.org/2000/svg">
<g clip-path="url(#clip0_3055_8223)">
<path d="M31.3966 19.1C31.3966 21.7436 29.2439 23.8963 26.6003 23.8963H0.503906V4.89994C0.503906 2.25631 2.65658 0.103638 5.30021 0.103638H31.3966V19.1Z" fill="white"/>
<path d="M22.8994 14.2282H24.8821C24.9388 14.2282 25.071 14.2093 25.1276 14.2093C25.5053 14.1338 25.8263 13.7939 25.8263 13.3218C25.8263 12.8686 25.5053 12.5287 25.1276 12.4343C25.071 12.4154 24.9577 12.4154 24.8821 12.4154H22.8994V14.2282Z" fill="url(#paint0_linear_3055_8223)"/>
<path d="M24.6558 1.70874C22.7675 1.70874 21.2191 3.23827 21.2191 5.14546V8.71436H26.072C26.1853 8.71436 26.3175 8.71436 26.4119 8.73324C27.5071 8.78989 28.3191 9.35638 28.3191 10.3383C28.3191 11.1125 27.7715 11.7734 26.7518 11.9056V11.9434C27.8659 12.0189 28.7157 12.642 28.7157 13.6051C28.7157 14.6436 27.7715 15.3234 26.5252 15.3234H21.2002V22.3102H26.242C28.1303 22.3102 29.6787 20.7806 29.6787 18.8734V1.70874H24.6558Z" fill="url(#paint1_linear_3055_8223)"/>
<path d="M25.5808 10.5649C25.5808 10.1117 25.2598 9.80954 24.8821 9.75289C24.8444 9.75289 24.75 9.73401 24.6933 9.73401H22.8994V11.3957H24.6933C24.75 11.3957 24.8633 11.3957 24.8821 11.3768C25.2598 11.3202 25.5808 11.0181 25.5808 10.5649Z" fill="url(#paint2_linear_3055_8223)"/>
<path d="M5.65873 1.70874C3.77042 1.70874 2.22201 3.23827 2.22201 5.14546V13.624C3.18504 14.096 4.18585 14.3982 5.18665 14.3982C6.37628 14.3982 7.01831 13.6806 7.01831 12.6987V8.69548H9.96407V12.6798C9.96407 14.2282 9.00103 15.4934 5.73426 15.4934C3.75154 15.4934 2.20312 15.0591 2.20312 15.0591V22.2913H7.2449C9.13321 22.2913 10.6816 20.7618 10.6816 18.8546V1.70874H5.65873Z" fill="url(#paint3_linear_3055_8223)"/>
<path d="M15.1574 1.70874C13.2691 1.70874 11.7207 3.23827 11.7207 5.14546V9.63963C12.5893 8.90319 14.1 8.43111 16.5359 8.54441C17.8388 8.60106 19.2362 8.95984 19.2362 8.95984V10.4138C18.5375 10.0551 17.7066 9.73405 16.6303 9.65851C14.7798 9.52633 13.6657 10.4327 13.6657 12.0189C13.6657 13.624 14.7798 14.5303 16.6303 14.3793C17.7066 14.3037 18.5375 13.9639 19.2362 13.624V15.078C19.2362 15.078 17.8577 15.4367 16.5359 15.4934C14.1 15.6067 12.5893 15.1346 11.7207 14.3982V22.3291H16.7625C18.6508 22.3291 20.1992 20.7995 20.1992 18.8923V1.70874H15.1574Z" fill="url(#paint4_linear_3055_8223)"/>
</g>
<defs>
<linearGradient id="paint0_linear_3055_8223" x1="21.2157" y1="13.324" x2="29.7012" y2="13.324" gradientUnits="userSpaceOnUse">
<stop stop-color="#007940"/>
<stop offset="0.2285" stop-color="#00873F"/>
<stop offset="0.7433" stop-color="#40A737"/>
<stop offset="1" stop-color="#5CB531"/>
</linearGradient>
<linearGradient id="paint1_linear_3055_8223" x1="21.2157" y1="12.0012" x2="29.7019" y2="12.0012" gradientUnits="userSpaceOnUse">
<stop stop-color="#007940"/>
<stop offset="0.2285" stop-color="#00873F"/>
<stop offset="0.7433" stop-color="#40A737"/>
<stop offset="1" stop-color="#5CB531"/>
</linearGradient>
<linearGradient id="paint2_linear_3055_8223" x1="21.2155" y1="10.5625" x2="29.7013" y2="10.5625" gradientUnits="userSpaceOnUse">
<stop stop-color="#007940"/>
<stop offset="0.2285" stop-color="#00873F"/>
<stop offset="0.7433" stop-color="#40A737"/>
<stop offset="1" stop-color="#5CB531"/>
</linearGradient>
<linearGradient id="paint3_linear_3055_8223" x1="2.21801" y1="12.0012" x2="10.8349" y2="12.0012" gradientUnits="userSpaceOnUse">
<stop stop-color="#1F286F"/>
<stop offset="0.4751" stop-color="#004E94"/>
<stop offset="0.8261" stop-color="#0066B1"/>
<stop offset="1" stop-color="#006FBC"/>
</linearGradient>
<linearGradient id="paint4_linear_3055_8223" x1="11.6719" y1="12.0012" x2="20.0409" y2="12.0012" gradientUnits="userSpaceOnUse">
<stop stop-color="#6C2C2F"/>
<stop offset="0.1735" stop-color="#882730"/>
<stop offset="0.5731" stop-color="#BE1833"/>
<stop offset="0.8585" stop-color="#DC0436"/>
<stop offset="1" stop-color="#E60039"/>
</linearGradient>
<clipPath id="clip0_3055_8223">
<rect width="31.1" height="24" fill="white" transform="translate(0.400391)"/>
</clipPath>
</defs>
</svg>
